<svg width="32" height="32" viewBox="0 0 32 32" fill="none" xmlns="http://www.w3.org/2000/svg">
  <path
    d="M14.3912 20.3199L16.1032 11.7279C16.1458 11.4933 16.0445 11.3386 15.7992 11.2639C15.5645 11.1893 15.2498 11.1519 14.8552 11.1519H14.6312L14.8072 10.3199H19.4632L19.2712 11.1519H19.0472C18.6738 11.1519 18.3485 11.1839 18.0712 11.2479C17.7938 11.3119 17.6338 11.4559 17.5912 11.6799L15.8792 20.2719C15.8365 20.5066 15.9325 20.6613 16.1672 20.7359C16.4125 20.8106 16.7325 20.8479 17.1272 20.8479H17.3512L17.1752 21.6799H12.5352L12.7112 20.8479H12.9352C13.3192 20.8479 13.6445 20.8159 13.9112 20.7519C14.1885 20.6773 14.3485 20.5333 14.3912 20.3199Z"
    fill="currentColor" />
</svg>
