<svg width="32" height="32" viewBox="0 0 32 32" fill="none" xmlns="http://www.w3.org/2000/svg">
  <path
    d="M16.7746 10.3199C17.4359 10.3199 18.0172 10.3786 18.5186 10.4959C19.0199 10.6133 19.4359 10.7893 19.7666 11.0239C20.1079 11.2586 20.3639 11.5519 20.5346 11.9039C20.7159 12.2453 20.8066 12.6346 20.8066 13.0719C20.8066 13.6479 20.6626 14.1279 20.3746 14.5119C20.0866 14.8959 19.6812 15.1893 19.1586 15.3919C18.6466 15.5839 18.0332 15.6959 17.3186 15.7279L17.7986 15.3599V16.0639L17.3986 15.6319C18.1879 15.6746 18.8706 15.8079 19.4466 16.0319C20.0226 16.2453 20.4706 16.5546 20.7906 16.9599C21.1106 17.3653 21.2706 17.8773 21.2706 18.4959C21.2706 19.0186 21.1746 19.4773 20.9826 19.8719C20.7906 20.2666 20.5079 20.5973 20.1346 20.8639C19.7719 21.1306 19.3186 21.3333 18.7746 21.4719C18.2412 21.6106 17.6226 21.6799 16.9186 21.6799H10.7266V20.5119H10.9026C11.1799 20.5119 11.4092 20.4746 11.5906 20.3999C11.7826 20.3253 11.8786 20.1706 11.8786 19.9359V12.0639C11.8786 11.8293 11.7826 11.6746 11.5906 11.5999C11.4092 11.5253 11.1799 11.4879 10.9026 11.4879H10.7266V10.3199H16.7746ZM14.2626 15.1519H16.0866C16.4919 15.1519 16.8172 15.0826 17.0626 14.9439C17.3186 14.8053 17.5052 14.5973 17.6226 14.3199C17.7399 14.0319 17.7986 13.6746 17.7986 13.2479C17.7986 12.8853 17.7346 12.5813 17.6066 12.3359C17.4892 12.0906 17.3079 11.9039 17.0626 11.7759C16.8172 11.6373 16.5132 11.5679 16.1506 11.5679H14.8866V20.4319H16.2466C16.6732 20.4319 17.0306 20.3573 17.3186 20.2079C17.6066 20.0586 17.8252 19.8293 17.9746 19.5199C18.1239 19.2106 18.1986 18.8266 18.1986 18.3679C18.1986 17.9306 18.1239 17.5626 17.9746 17.2639C17.8359 16.9653 17.6119 16.7359 17.3026 16.5759C17.0039 16.4159 16.6146 16.3359 16.1346 16.3359H14.2626V15.1519Z"
    fill="currentColor" />
</svg>
