<svg width="32" height="32" viewBox="0 0 32 32" fill="none" xmlns="http://www.w3.org/2000/svg">
  <path
    d="M13.2327 17.0239C13.2327 17.6533 13.3073 18.1866 13.4567 18.6239C13.606 19.0613 13.814 19.4079 14.0807 19.6639C14.3473 19.9199 14.662 20.1066 15.0247 20.2239C15.3873 20.3306 15.7873 20.3839 16.2247 20.3839C16.662 20.3839 17.0567 20.3306 17.4087 20.2239C17.7713 20.1066 18.086 19.9199 18.3527 19.6639C18.6193 19.4079 18.822 19.0613 18.9607 18.6239C19.11 18.1866 19.1847 17.6533 19.1847 17.0239V11.0879C19.1847 11.0346 19.142 10.9866 19.0567 10.9439C18.9713 10.9013 18.8593 10.8693 18.7207 10.8479C18.582 10.8159 18.4273 10.7946 18.2567 10.7839C18.0967 10.7626 17.942 10.7519 17.7927 10.7519H17.6487V9.91992H21.7927V10.7519H21.6167C21.3607 10.7519 21.126 10.7786 20.9127 10.8319C20.71 10.8746 20.55 10.9493 20.4327 11.0559C20.3153 11.1626 20.2567 11.3066 20.2567 11.4879V17.0239C20.2567 17.8239 20.15 18.5119 19.9367 19.0879C19.7233 19.6533 19.4193 20.1173 19.0247 20.4799C18.6407 20.8426 18.198 21.1093 17.6967 21.2799C17.1953 21.4399 16.6513 21.5199 16.0647 21.5199C15.446 21.5199 14.87 21.4346 14.3367 21.2639C13.814 21.0933 13.3553 20.8319 12.9607 20.4799C12.5767 20.1173 12.278 19.6533 12.0647 19.0879C11.8513 18.5119 11.7447 17.8239 11.7447 17.0239V11.3279C11.7447 11.0933 11.6167 10.9386 11.3607 10.8639C11.1047 10.7893 10.7793 10.7519 10.3847 10.7519H10.2087V9.91992H14.7687V10.7519H14.6247C14.4753 10.7519 14.3153 10.7573 14.1447 10.7679C13.9847 10.7679 13.8353 10.7786 13.6967 10.7999C13.558 10.8106 13.446 10.8266 13.3607 10.8479C13.2753 10.8586 13.2327 10.8799 13.2327 10.9119V17.0239Z"
    fill="currentColor" />
  <path d="M9.47266 24.4799H22.5287V26.0799H9.47266V24.4799Z" fill="currentColor" />
</svg>
