<svg width="32" height="32" viewBox="0 0 32 32" fill="none" stroke="currentColor" xmlns="http://www.w3.org/2000/svg">
<path d="M10 15.6818H22.5M11.4205 10H21.0795C21.864 10 22.5 10.636 22.5 11.4205C22.5 12.205 21.864 12.8409 21.0795 12.8409H11.4205C10.636 12.8409 10 12.205 10 11.4205C10 10.636 10.636 10 11.4205 10ZM11.4205 18.5227H21.0795C21.864 18.5227 22.5 19.1587 22.5 19.9432C22.5 20.7277 21.864 21.3636 21.0795 21.3636H11.4205C10.636 21.3636 10 20.7277 10 19.9432C10 19.1587 10.636 18.5227 11.4205 18.5227Z" stroke-width="1.4" stroke-linecap="round" stroke-linejoin="round"/>
</svg>
